<svg width="3247" height="1310" xmlns="http://www.w3.org/2000/svg" stroke="null" style="vector-effect: non-scaling-stroke;">
 <!-- Created with Method Draw - http://github.com/duopixel/Method-Draw/ -->
 <g stroke="null">
  <title stroke="null">background</title>
  <rect stroke="null" fill="#fff" id="canvas_background" height="1312" width="3249" y="-1" x="-1"/>
  <g stroke="null" style="vector-effect: non-scaling-stroke;" display="none" overflow="visible" y="0" x="0" height="100%" width="100%" id="canvasGrid">
   <rect fill="url(#gridpattern)" stroke-width="0" y="0" x="0" height="100%" width="100%"/>
  </g>
 </g>
 <g stroke="null">
  <title stroke="null">Layer 1</title>
  <rect stroke="#000" id="svg_4" height="459.95413" width="4403.65537" y="844.98729" x="0.47367" stroke-width="0" fill="#0096c7"/>
  <path id="svg_10" d="m148.29398,935.79292l217.23963,-613.78805l217.23963,613.78805l-434.47926,0z" stroke-opacity="null" stroke-width="0" stroke="#000" fill="#004f2d"/>
  <path id="svg_11" d="m1118.6839,1354.62978l872.58003,-25.80639l872.58003,25.80639l-1745.16007,0z" stroke-opacity="null" stroke-width="0" stroke="#000" fill="#004f2d"/>
  <path stroke="#000" id="svg_14" d="m291.29906,529.60795l74.32537,-208.25391l74.32537,208.25391l-148.65075,0z" stroke-opacity="null" stroke-width="0" fill="#999999"/>
  <path stroke="#000" id="svg_22" d="m286.56011,540.09063l15.62035,-41.14838l63.2427,-18.31278l63.24272,18.31278l15.62064,41.14838l-43.76657,32.99866l-70.19357,0l-43.76627,-32.99866z" stroke-width="0" fill="#999999"/>
  <path id="svg_24" d="m317.25863,935.79293l217.23963,-613.78806l217.23963,613.78806l-434.47926,0z" stroke-opacity="null" stroke-width="0" stroke="#000" fill="#004f2d"/>
  <path stroke="#000" id="svg_25" d="m460.26371,529.60795l74.32537,-208.25391l74.32538,208.25391l-148.65075,0z" stroke-opacity="null" stroke-width="0" fill="#999999"/>
  <path stroke="#000" id="svg_26" d="m455.52476,540.09064l15.62035,-41.14838l63.2427,-18.31278l63.24272,18.31278l15.62063,41.14838l-43.76657,32.99865l-70.19356,0l-43.76627,-32.99865z" stroke-width="0" fill="#999999"/>
  <path id="svg_27" d="m536.79775,935.79293l217.23963,-613.78806l217.23963,613.78806l-434.47926,0z" stroke-opacity="null" stroke-width="0" stroke="#000" fill="#004f2d"/>
  <path stroke="#000" id="svg_28" d="m679.80283,529.60795l74.32537,-208.25391l74.32538,208.25391l-148.65075,0z" stroke-opacity="null" stroke-width="0" fill="#999999"/>
  <path stroke="#000" id="svg_29" d="m675.06388,540.09064l15.62035,-41.14838l63.2427,-18.31278l63.24272,18.31278l15.62063,41.14838l-43.76657,32.99865l-70.19356,0l-43.76627,-32.99865z" stroke-width="0" fill="#999999"/>
  <path id="svg_30" d="m637.94666,935.79293l217.23963,-613.78806l217.23963,613.78806l-434.47926,0z" stroke-opacity="null" stroke-width="0" stroke="#000" fill="#004f2d"/>
  <path stroke="#000" id="svg_31" d="m780.95174,529.60795l74.32537,-208.25391l74.32538,208.25391l-148.65075,0z" stroke-opacity="null" stroke-width="0" fill="#999999"/>
  <path stroke="#000" id="svg_32" d="m776.21279,540.09064l15.62035,-41.14838l63.2427,-18.31278l63.24272,18.31278l15.62063,41.14838l-43.76657,32.99865l-70.19356,0l-43.76627,-32.99865z" stroke-width="0" fill="#999999"/>
  <path id="svg_33" d="m70.13346,869.1266l217.23963,-613.78806l217.23963,613.78806l-434.47926,0z" stroke-opacity="null" stroke-width="0" stroke="#000" fill="#004f2d"/>
  <path stroke="#000" id="svg_34" d="m213.18906,462.99214l74.32537,-208.25391l74.32538,208.25391l-148.65075,0z" stroke-opacity="null" stroke-width="0" fill="#999999"/>
  <path stroke="#000" id="svg_35" d="m208.39959,474.57373l15.62035,-41.14838l63.2427,-18.31278l63.24272,18.31278l15.62063,41.14838l-43.76657,32.99865l-70.19356,0l-43.76627,-32.99865z" stroke-width="0" fill="#999999"/>
  <path id="svg_36" d="m240.24754,871.42544l217.23963,-613.78806l217.23963,613.78806l-434.47926,0z" stroke-opacity="null" stroke-width="0" stroke="#000" fill="#004f2d"/>
  <path stroke="#000" id="svg_37" d="m383.25262,465.24046l74.32537,-208.25391l74.32538,208.25391l-148.65075,0z" stroke-opacity="null" stroke-width="0" fill="#999999"/>
  <path stroke="#000" id="svg_38" d="m378.51367,475.72315l15.62035,-41.14838l63.2427,-18.31278l63.24272,18.31278l15.62063,41.14838l-43.76657,32.99865l-70.19356,0l-43.76627,-32.99865z" stroke-width="0" fill="#999999"/>
  <path id="svg_39" d="m459.78665,871.42544l217.23963,-613.78806l217.23963,613.78806l-434.47926,0z" stroke-opacity="null" stroke-width="0" stroke="#000" fill="#004f2d"/>
  <path stroke="#000" id="svg_40" d="m602.79173,465.24046l74.32537,-208.25391l74.32538,208.25391l-148.65075,0z" stroke-opacity="null" stroke-width="0" fill="#999999"/>
  <path stroke="#000" id="svg_41" d="m598.05278,475.72315l15.62035,-41.14838l63.2427,-18.31278l63.24272,18.31278l15.62063,41.14838l-43.76657,32.99865l-70.19356,0l-43.76627,-32.99865z" stroke-width="0" fill="#999999"/>
  <path id="svg_42" d="m560.93556,871.42544l217.23963,-613.78806l217.23963,613.78806l-434.47926,0z" stroke-opacity="null" stroke-width="0" stroke="#000" fill="#004f2d"/>
  <path stroke="#000" id="svg_43" d="m703.94064,465.24046l74.32537,-208.25391l74.32538,208.25391l-148.65075,0z" stroke-opacity="null" stroke-width="0" fill="#999999"/>
  <path stroke="#000" id="svg_44" d="m699.20169,475.72315l15.62035,-41.14838l63.2427,-18.31278l63.24272,18.31278l15.62063,41.14838l-43.76657,32.99865l-70.19356,0l-43.76627,-32.99865z" stroke-width="0" fill="#999999"/>
  <path id="svg_69" d="m916.10617,936.94234l217.23963,-613.78805l217.23963,613.78805l-434.47926,0z" stroke-opacity="null" stroke-width="0" stroke="#000" fill="#004f2d"/>
  <path stroke="#000" id="svg_70" d="m1059.11125,530.75737l74.32537,-208.25392l74.32537,208.25392l-148.65074,0z" stroke-opacity="null" stroke-width="0" fill="#999999"/>
  <path stroke="#000" id="svg_71" d="m1054.3723,541.24005l15.62035,-41.14838l63.2427,-18.31277l63.24271,18.31277l15.62064,41.14838l-43.76657,32.99866l-70.19356,0l-43.76627,-32.99866z" stroke-width="0" fill="#999999"/>
  <path id="svg_72" d="m1085.07082,936.94235l217.23963,-613.78806l217.23963,613.78806l-434.47926,0z" stroke-opacity="null" stroke-width="0" stroke="#000" fill="#004f2d"/>
  <path stroke="#000" id="svg_73" d="m1228.0759,530.75737l74.32537,-208.25391l74.32538,208.25391l-148.65075,0z" stroke-opacity="null" stroke-width="0" fill="#999999"/>
  <path stroke="#000" id="svg_74" d="m1223.33695,541.24006l15.62035,-41.14838l63.2427,-18.31278l63.24272,18.31278l15.62063,41.14838l-43.76657,32.99865l-70.19356,0l-43.76627,-32.99865z" stroke-width="0" fill="#999999"/>
  <path id="svg_75" d="m1304.60994,936.94235l217.23963,-613.78806l217.23963,613.78806l-434.47926,0z" stroke-opacity="null" stroke-width="0" stroke="#000" fill="#004f2d"/>
  <path stroke="#000" id="svg_76" d="m1447.61502,530.75737l74.32537,-208.25391l74.32538,208.25391l-148.65075,0z" stroke-opacity="null" stroke-width="0" fill="#999999"/>
  <path stroke="#000" id="svg_77" d="m1442.87607,541.24006l15.62035,-41.14838l63.2427,-18.31278l63.24272,18.31278l15.62063,41.14838l-43.76657,32.99865l-70.19356,0l-43.76627,-32.99865z" stroke-width="0" fill="#999999"/>
  <path id="svg_78" d="m1406.90827,936.94235l217.23963,-613.78806l217.23963,613.78806l-434.47926,0z" stroke-opacity="null" stroke-width="0" stroke="#000" fill="#004f2d"/>
  <path stroke="#000" id="svg_79" d="m1548.76393,530.75737l74.32537,-208.25391l74.32538,208.25391l-148.65075,0z" stroke-opacity="null" stroke-width="0" fill="#999999"/>
  <path stroke="#000" id="svg_80" d="m1544.02498,541.24006l15.62035,-41.14838l63.2427,-18.31278l63.24272,18.31278l15.62063,41.14838l-43.76657,32.99865l-70.19356,0l-43.76627,-32.99865z" stroke-width="0" fill="#999999"/>
  <path id="svg_81" d="m839.09507,872.57486l217.23963,-613.78806l217.23963,613.78806l-434.47926,0z" stroke-opacity="null" stroke-width="0" stroke="#000" fill="#004f2d"/>
  <path stroke="#000" id="svg_82" d="m982.10015,466.38988l74.32537,-208.25391l74.32538,208.25391l-148.65075,0z" stroke-opacity="null" stroke-width="0" fill="#999999"/>
  <path stroke="#000" id="svg_83" d="m977.3612,476.87257l15.62035,-41.14838l63.2427,-18.31278l63.24272,18.31278l15.62063,41.14838l-43.76657,32.99865l-70.19356,0l-43.76627,-32.99865z" stroke-width="0" fill="#999999"/>
  <path id="svg_84" d="m1008.05973,872.57486l217.23963,-613.78806l217.23963,613.78806l-434.47926,0z" stroke-opacity="null" stroke-width="0" stroke="#000" fill="#004f2d"/>
  <path stroke="#000" id="svg_85" d="m1151.06481,466.38988l74.32537,-208.25391l74.32538,208.25391l-148.65075,0z" stroke-opacity="null" stroke-width="0" fill="#999999"/>
  <path stroke="#000" id="svg_86" d="m1146.32586,476.87257l15.62035,-41.14838l63.2427,-18.31278l63.24272,18.31278l15.62063,41.14838l-43.76657,32.99865l-70.19356,0l-43.76627,-32.99865z" stroke-width="0" fill="#999999"/>
  <path id="svg_87" d="m1227.59884,872.57486l217.23963,-613.78806l217.23963,613.78806l-434.47926,0z" stroke-opacity="null" stroke-width="0" stroke="#000" fill="#004f2d"/>
  <path stroke="#000" id="svg_88" d="m1370.60392,466.38988l74.32537,-208.25391l74.32538,208.25391l-148.65075,0z" stroke-opacity="null" stroke-width="0" fill="#999999"/>
  <path stroke="#000" id="svg_89" d="m1365.86497,476.87257l15.62035,-41.14838l63.2427,-18.31278l63.24272,18.31278l15.62063,41.14838l-43.76657,32.99865l-70.19356,0l-43.76627,-32.99865z" stroke-width="0" fill="#999999"/>
  <path id="svg_90" d="m1328.74775,872.57486l217.23963,-613.78806l217.23963,613.78806l-434.47926,0z" stroke-opacity="null" stroke-width="0" stroke="#000" fill="#004f2d"/>
  <path stroke="#000" id="svg_91" d="m1471.75283,466.38988l74.32537,-208.25391l74.32538,208.25391l-148.65075,0z" stroke-opacity="null" stroke-width="0" fill="#999999"/>
  <path stroke="#000" id="svg_92" d="m1467.01388,476.87257l15.62035,-41.14838l63.2427,-18.31278l63.24272,18.31278l15.62063,41.14838l-43.76657,32.99865l-70.19356,0l-43.76627,-32.99865z" stroke-width="0" fill="#999999"/>
  <path id="svg_93" d="m1637.94161,917.40221l217.23963,-613.78805l217.23963,613.78805l-434.47926,0z" stroke-opacity="null" stroke-width="0" stroke="#000" fill="#004f2d"/>
  <path stroke="#000" id="svg_94" d="m1780.94669,511.21724l74.32537,-208.25392l74.32537,208.25392l-148.65074,0z" stroke-opacity="null" stroke-width="0" fill="#999999"/>
  <path stroke="#000" id="svg_95" d="m1776.20774,521.69992l15.62035,-41.14838l63.2427,-18.31277l63.24271,18.31277l15.62064,41.14838l-43.76657,32.99866l-70.19356,0l-43.76627,-32.99866z" stroke-width="0" fill="#999999"/>
  <path id="svg_96" d="m1806.90626,917.40222l217.23963,-613.78806l217.23963,613.78806l-434.47926,0z" stroke-opacity="null" stroke-width="0" stroke="#000" fill="#004f2d"/>
  <path stroke="#000" id="svg_97" d="m1949.91134,511.21724l74.32537,-208.25391l74.32538,208.25391l-148.65075,0z" stroke-opacity="null" stroke-width="0" fill="#999999"/>
  <path stroke="#000" id="svg_98" d="m1945.17239,521.69993l15.62035,-41.14838l63.2427,-18.31278l63.24272,18.31278l15.62063,41.14838l-43.76657,32.99865l-70.19356,0l-43.76627,-32.99865z" stroke-width="0" fill="#999999"/>
  <path id="svg_99" d="m2026.44538,917.40222l217.23963,-613.78806l217.23963,613.78806l-434.47926,0z" stroke-opacity="null" stroke-width="0" stroke="#000" fill="#004f2d"/>
  <path stroke="#000" id="svg_100" d="m2169.45046,511.21724l74.32537,-208.25391l74.32538,208.25391l-148.65075,0z" stroke-opacity="null" stroke-width="0" fill="#999999"/>
  <path stroke="#000" id="svg_101" d="m2164.71151,521.69993l15.62035,-41.14838l63.2427,-18.31278l63.24272,18.31278l15.62063,41.14838l-43.76657,32.99865l-70.19356,0l-43.76627,-32.99865z" stroke-width="0" fill="#999999"/>
  <path id="svg_102" d="m2127.59429,917.40222l217.23963,-613.78806l217.23963,613.78806l-434.47926,0z" stroke-opacity="null" stroke-width="0" stroke="#000" fill="#004f2d"/>
  <path stroke="#000" id="svg_103" d="m2270.59937,511.21724l74.32537,-208.25391l74.32538,208.25391l-148.65075,0z" stroke-opacity="null" stroke-width="0" fill="#999999"/>
  <path stroke="#000" id="svg_104" d="m2265.86042,521.69993l15.62035,-41.14838l63.2427,-18.31278l63.24272,18.31278l15.62063,41.14838l-43.76657,32.99865l-70.19356,0l-43.76627,-32.99865z" stroke-width="0" fill="#999999"/>
  <path id="svg_105" d="m1560.93051,853.03473l217.23963,-613.78806l217.23963,613.78806l-434.47926,0z" stroke-opacity="null" stroke-width="0" stroke="#000" fill="#004f2d"/>
  <path stroke="#000" id="svg_106" d="m1703.93559,446.84975l74.32537,-208.25391l74.32538,208.25391l-148.65075,0z" stroke-opacity="null" stroke-width="0" fill="#999999"/>
  <path stroke="#000" id="svg_107" d="m1699.19664,457.33244l15.62035,-41.14838l63.2427,-18.31278l63.24272,18.31278l15.62063,41.14838l-43.76657,32.99865l-70.19356,0l-43.76627,-32.99865z" stroke-width="0" fill="#999999"/>
  <path id="svg_108" d="m1729.89517,853.03473l217.23963,-613.78806l217.23963,613.78806l-434.47926,0z" stroke-opacity="null" stroke-width="0" stroke="#000" fill="#004f2d"/>
  <path stroke="#000" id="svg_109" d="m1872.90025,446.84975l74.32537,-208.25391l74.32538,208.25391l-148.65075,0z" stroke-opacity="null" stroke-width="0" fill="#999999"/>
  <path stroke="#000" id="svg_110" d="m1868.1613,457.33244l15.62035,-41.14838l63.2427,-18.31278l63.24272,18.31278l15.62063,41.14838l-43.76657,32.99865l-70.19356,0l-43.76627,-32.99865z" stroke-width="0" fill="#999999"/>
  <path id="svg_111" d="m1949.43428,853.03473l217.23963,-613.78806l217.23963,613.78806l-434.47926,0z" stroke-opacity="null" stroke-width="0" stroke="#000" fill="#004f2d"/>
  <path stroke="#000" id="svg_112" d="m2092.43936,446.84975l74.32537,-208.25391l74.32538,208.25391l-148.65075,0z" stroke-opacity="null" stroke-width="0" fill="#999999"/>
  <path stroke="#000" id="svg_113" d="m2087.70041,457.33244l15.62035,-41.14838l63.2427,-18.31278l63.24272,18.31278l15.62063,41.14838l-43.76657,32.99865l-70.19356,0l-43.76627,-32.99865z" stroke-width="0" fill="#999999"/>
  <path id="svg_114" d="m2050.58319,853.03473l217.23963,-613.78806l217.23963,613.78806l-434.47926,0z" stroke-opacity="null" stroke-width="0" stroke="#000" fill="#004f2d"/>
  <path stroke="#000" id="svg_115" d="m2193.58827,446.84975l74.32537,-208.25391l74.32538,208.25391l-148.65075,0z" stroke-opacity="null" stroke-width="0" fill="#999999"/>
  <path stroke="#000" id="svg_116" d="m2188.84932,457.33244l15.62035,-41.14838l63.2427,-18.31278l63.24272,18.31278l15.62063,41.14838l-43.76657,32.99865l-70.19356,0l-43.76627,-32.99865z" stroke-width="0" fill="#999999"/>
  <path id="svg_117" d="m2456.32816,927.74698l217.23963,-613.78805l217.23963,613.78805l-434.47926,0z" stroke-opacity="null" stroke-width="0" stroke="#000" fill="#004f2d"/>
  <path stroke="#000" id="svg_118" d="m2599.33324,521.56201l74.32537,-208.25392l74.32537,208.25392l-148.65074,0z" stroke-opacity="null" stroke-width="0" fill="#999999"/>
  <path stroke="#000" id="svg_119" d="m2594.59429,532.04469l15.62035,-41.14838l63.2427,-18.31277l63.24271,18.31277l15.62064,41.14838l-43.76657,32.99866l-70.19356,0l-43.76627,-32.99866z" stroke-width="0" fill="#999999"/>
  <path id="svg_120" d="m2625.29281,927.74699l217.23963,-613.78806l217.23963,613.78806l-434.47926,0z" stroke-opacity="null" stroke-width="0" stroke="#000" fill="#004f2d"/>
  <path stroke="#000" id="svg_121" d="m2768.29789,521.56201l74.32537,-208.25391l74.32538,208.25391l-148.65075,0z" stroke-opacity="null" stroke-width="0" fill="#999999"/>
  <path stroke="#000" id="svg_122" d="m2763.55894,532.0447l15.62035,-41.14838l63.2427,-18.31278l63.24272,18.31278l15.62063,41.14838l-43.76657,32.99865l-70.19356,0l-43.76627,-32.99865z" stroke-width="0" fill="#999999"/>
  <path id="svg_123" d="m2844.83193,927.74699l217.23963,-613.78806l217.23963,613.78806l-434.47926,0z" stroke-opacity="null" stroke-width="0" stroke="#000" fill="#004f2d"/>
  <path stroke="#000" id="svg_124" d="m2987.83701,521.56201l74.32537,-208.25391l74.32538,208.25391l-148.65075,0z" stroke-opacity="null" stroke-width="0" fill="#999999"/>
  <path stroke="#000" id="svg_125" d="m2983.09806,532.0447l15.62035,-41.14838l63.2427,-18.31278l63.24272,18.31278l15.62063,41.14838l-43.76657,32.99865l-70.19356,0l-43.76627,-32.99865z" stroke-width="0" fill="#999999"/>
  <path id="svg_126" d="m2945.98084,927.74699l217.23963,-613.78806l217.23963,613.78806l-434.47926,0z" stroke-opacity="null" stroke-width="0" stroke="#000" fill="#004f2d"/>
  <path stroke="#000" id="svg_127" d="m3088.98592,521.56201l74.32537,-208.25391l74.32538,208.25391l-148.65075,0z" stroke-opacity="null" stroke-width="0" fill="#999999"/>
  <path stroke="#000" id="svg_128" d="m3084.24697,532.0447l15.62035,-41.14838l63.2427,-18.31278l63.24272,18.31278l15.62063,41.14838l-43.76657,32.99865l-70.19356,0l-43.76627,-32.99865z" stroke-width="0" fill="#999999"/>
  <path id="svg_129" d="m2379.31706,863.3795l217.23963,-613.78806l217.23963,613.78806l-434.47926,0z" stroke-opacity="null" stroke-width="0" stroke="#000" fill="#004f2d"/>
  <path stroke="#000" id="svg_130" d="m2522.32214,457.19452l74.32537,-208.25391l74.32538,208.25391l-148.65075,0z" stroke-opacity="null" stroke-width="0" fill="#999999"/>
  <path stroke="#000" id="svg_131" d="m2517.58319,467.67721l15.62035,-41.14838l63.2427,-18.31278l63.24272,18.31278l15.62063,41.14838l-43.76657,32.99865l-70.19356,0l-43.76627,-32.99865z" stroke-width="0" fill="#999999"/>
  <path id="svg_132" d="m2548.28172,863.3795l217.23963,-613.78806l217.23963,613.78806l-434.47926,0z" stroke-opacity="null" stroke-width="0" stroke="#000" fill="#004f2d"/>
  <path stroke="#000" id="svg_133" d="m2691.2868,457.19452l74.32537,-208.25391l74.32538,208.25391l-148.65075,0z" stroke-opacity="null" stroke-width="0" fill="#999999"/>
  <path stroke="#000" id="svg_134" d="m2686.54785,467.67721l15.62035,-41.14838l63.2427,-18.31278l63.24272,18.31278l15.62063,41.14838l-43.76657,32.99865l-70.19356,0l-43.76627,-32.99865z" stroke-width="0" fill="#999999"/>
  <path id="svg_135" d="m2767.82083,863.3795l217.23963,-613.78806l217.23963,613.78806l-434.47926,0z" stroke-opacity="null" stroke-width="0" stroke="#000" fill="#004f2d"/>
  <path stroke="#000" id="svg_136" d="m2910.82591,457.19452l74.32537,-208.25391l74.32538,208.25391l-148.65075,0z" stroke-opacity="null" stroke-width="0" fill="#999999"/>
  <path stroke="#000" id="svg_137" d="m2906.08696,467.67721l15.62035,-41.14838l63.2427,-18.31278l63.24272,18.31278l15.62063,41.14838l-43.76657,32.99865l-70.19356,0l-43.76627,-32.99865z" stroke-width="0" fill="#999999"/>
  <path id="svg_138" d="m2868.96974,863.3795l217.23963,-613.78806l217.23963,613.78806l-434.47926,0z" stroke-opacity="null" stroke-width="0" stroke="#000" fill="#004f2d"/>
  <path stroke="#000" id="svg_139" d="m3011.97482,457.19452l74.32537,-208.25391l74.32538,208.25391l-148.65075,0z" stroke-opacity="null" stroke-width="0" fill="#999999"/>
  <path stroke="#000" id="svg_140" d="m3007.23587,467.67721l15.62035,-41.14838l63.2427,-18.31278l63.24272,18.31278l15.62063,41.14838l-43.76657,32.99865l-70.19356,0l-43.76627,-32.99865z" stroke-width="0" fill="#999999"/>
  <path id="svg_141" d="m2242.53629,942.68944l217.23963,-613.78806l217.23963,613.78806l-434.47926,0z" stroke-opacity="null" stroke-width="0" stroke="#000" fill="#004f2d"/>
  <path stroke="#000" id="svg_142" d="m2385.59189,537.65388l74.32537,-208.25391l74.32538,208.25391l-148.65075,0z" stroke-opacity="null" stroke-width="0" fill="#999999"/>
  <path stroke="#000" id="svg_143" d="m2380.80242,548.13657l15.62035,-41.14838l63.2427,-18.31278l63.24272,18.31278l15.62063,41.14838l-43.76657,32.99865l-70.19356,0l-43.76627,-32.99865z" stroke-width="0" fill="#999999"/>
  <path id="svg_144" d="m-124.11842,880.62079l217.23963,-613.78806l217.23963,613.78806l-434.47926,0z" stroke-opacity="null" stroke-width="0" stroke="#000" fill="#004f2d"/>
  <path stroke="#000" id="svg_145" d="m20.03608,475.58523l74.32537,-208.25391l74.32538,208.25391l-148.65075,0z" stroke-opacity="null" stroke-width="0" fill="#999999"/>
  <path stroke="#000" id="svg_146" d="m14.14771,486.06792l15.62035,-41.14838l63.2427,-18.31278l63.24272,18.31278l15.62063,41.14838l-43.76657,32.99865l-70.19356,0l-43.76627,-32.99865z" stroke-width="0" fill="#999999"/>
  <path id="svg_147" d="m719.55546,964.52841l217.23963,-613.78806l217.23963,613.78806l-434.47926,0z" stroke-opacity="null" stroke-width="0" stroke="#000" fill="#004f2d"/>
  <path stroke="#000" id="svg_148" d="m862.61106,557.29505l74.32537,-208.25391l74.32538,208.25391l-148.65075,0z" stroke-opacity="null" stroke-width="0" fill="#999999"/>
  <path stroke="#000" id="svg_149" d="m857.82159,569.97554l15.62035,-41.14838l63.2427,-18.31278l63.24272,18.31278l15.62063,41.14838l-43.76657,32.99865l-70.19356,0l-43.76627,-32.99865z" stroke-width="0" fill="#999999"/>
  <path id="svg_150" d="m2318.39786,919.70106l217.23963,-613.78806l217.23963,613.78806l-434.47926,0z" stroke-opacity="null" stroke-width="0" stroke="#000" fill="#004f2d"/>
  <path stroke="#000" id="svg_151" d="m2461.45347,514.6655l74.32537,-208.25391l74.32538,208.25391l-148.65075,0z" stroke-opacity="null" stroke-width="0" fill="#999999"/>
  <path stroke="#000" id="svg_152" d="m2456.66399,525.14819l15.62035,-41.14838l63.2427,-18.31278l63.24272,18.31278l15.62063,41.14838l-43.76657,32.99865l-70.19356,0l-43.76627,-32.99865z" stroke-width="0" fill="#999999"/>
  <rect stroke="#000" id="svg_157" height="306.97672" width="103.3246" y="530.67731" x="1086.57087" stroke-opacity="null" stroke-width="0" fill="#444444"/>
  <path stroke="#000" id="svg_159" d="m1048.56736,455.25082l53.56664,-24.78306l75.75562,0l53.56664,24.78306l0,35.04898l-53.56664,24.78306l-75.75562,0l-53.56664,-24.78306l0,-35.04898z" fill-opacity="null" stroke-opacity="null" stroke-width="0" fill="#444444"/>
  <rect id="svg_162" height="46.1537" width="35.16472" y="500.11037" x="1120.87559" fill-opacity="null" stroke-opacity="null" stroke-width="0" stroke="#000" fill="#444444"/>
  <rect id="svg_163" height="74.72504" width="8.79118" y="360.55037" x="1135.16126" fill-opacity="null" stroke-opacity="null" stroke-width="0" stroke="#000" fill="#444444"/>
  <rect id="svg_164" height="330.76819" width="106.59307" y="522.34743" x="1395.85911" stroke-width="0" stroke="#000" fill="#444444"/>
  <rect stroke="#000" id="svg_165" height="202.19717" width="38.29883" y="642.58626" x="1301.81288" stroke-width="0" fill="#444444"/>
  <rect id="svg_166" height="264.83433" width="47.2526" y="543.42767" x="1213.64328" stroke-width="0" stroke="#000" fill="#444444"/>
  <ellipse ry="157.69181" rx="45.0548" id="svg_167" cy="688.19051" cx="1650.16345" stroke-width="0" stroke="#000" fill="#444444"/>
  <rect id="svg_168" height="220.87843" width="63.73606" y="529.142" x="1509.24675" stroke-width="0" stroke="#000" fill="#444444"/>
  <rect stroke="#000" id="svg_169" height="208.23312" width="51.66353" y="595.58678" x="1354.30988" stroke-width="0" fill="#444444"/>
  <rect stroke="#000" id="svg_170" height="208.23312" width="51.66353" y="570.93892" x="1176.14108" stroke-width="0" fill="#444444"/>
  <rect stroke="#000" id="svg_171" height="208.23312" width="51.66353" y="668.82614" x="1574.73217" stroke-width="0" fill="#444444"/>
  <rect stroke="#000" id="svg_172" height="208.23312" width="51.66353" y="623.05154" x="1490.92945" stroke-width="0" fill="#444444"/>
  <rect stroke="#000" id="svg_173" height="208.23312" width="51.66353" y="588.54454" x="1715.57708" stroke-width="0" fill="#444444"/>
  <rect stroke="#000" id="svg_174" height="208.23312" width="51.66353" y="648.40362" x="1800.08402" stroke-width="0" fill="#444444"/>
  <rect stroke="#000" id="svg_175" height="208.23312" width="51.66353" y="619.53042" x="1062.0567" stroke-width="0" fill="#444444"/>
  <rect stroke="#000" id="svg_189" height="208.23312" width="51.66353" y="592.06566" x="1026.84547" stroke-width="0" fill="#444444"/>
  <rect stroke="#000" id="svg_190" height="208.23312" width="51.66353" y="666.00924" x="969.09905" stroke-width="0" fill="#444444"/>
  <rect stroke="#000" id="svg_191" height="202.19717" width="50.02723" y="597.52453" x="1247.49188" stroke-width="0" fill="#444444"/>
  <ellipse stroke="#000" ry="157.69181" rx="35.17826" id="svg_192" cy="684.48681" cx="1349.5462" stroke-width="0" fill="#444444"/>
  <ellipse stroke="#000" ry="125.00037" rx="1752.94612" id="svg_193" cy="938.60379" cx="1597.76459" stroke-opacity="null" stroke-width="0" fill="#A98E49"/>
  <ellipse ry="0.7353" id="svg_194" cy="862.86826" cx="1597.76459" stroke-opacity="null" stroke-width="0" stroke="#000" fill="#A98E49"/>
  <ellipse stroke="#000" ry="145.34884" rx="1784.88361" id="svg_156" cy="883.2438" cx="1670.00995" stroke-opacity="null" stroke-width="0" fill="#0a8754"/>
 </g>
</svg>